<?xml version="1.0" encoding="UTF-8" standalone="no"?>
<svg width="103px" height="44px" viewBox="0 0 103 44" version="1.1" xmlns="http://www.w3.org/2000/svg" xmlns:xlink="http://www.w3.org/1999/xlink">
    <!-- Generator: Sketch 50.2 (55047) - http://www.bohemiancoding.com/sketch -->
    <title>G Bit Copy</title>
    <desc>Created with Sketch.</desc>
    <defs>
        <rect id="path-1" x="0" y="0" width="40.6314607" height="43.6442553" rx="6.72"></rect>
    </defs>
    <g id="Page-1" stroke="none" stroke-width="1" fill="none" fill-rule="evenodd">
        <g id="Hello-Home-Page-1" transform="translate(-146.000000, -45.000000)">
            <g id="Navigation" transform="translate(-2.000000, -4.000000)">
                <g id="G-Bit-Copy" transform="translate(148.000000, 49.000000)">
                    <path d="M58.7210179,15.4667553 C66.3195099,15.4667553 72.4420358,21.5731383 72.4420358,29.1515957 C72.4420358,36.6755319 66.3195099,42.8364362 58.7210179,42.8364362 C51.1771913,42.8364362 45,36.6755319 45,29.1515957 L45,4.67154255 C45,3.19946809 46.202639,2 47.7332705,2 C49.2092366,2 50.4118756,3.19946809 50.4118756,4.67154255 L50.4118756,18.2473404 C52.7078228,16.5026596 55.6050895,15.4667553 58.7210179,15.4667553 Z M58.7210179,37.4388298 C63.3129123,37.4388298 67.0301602,33.6768617 67.0301602,29.1515957 C67.0301602,24.5718085 63.3129123,20.8643617 58.7210179,20.8643617 C54.1291235,20.8643617 50.4118756,24.5718085 50.4118756,29.0970745 L50.4118756,29.1515957 C50.4118756,33.731383 54.1291235,37.4388298 58.7210179,37.4388298 Z M78.3459001,43 C76.8152686,43 75.6126296,41.8005319 75.6126296,40.2739362 L75.6126296,18.3018617 C75.6126296,16.8297872 76.8152686,15.6303191 78.3459001,15.6303191 C79.8218662,15.6303191 81.0245052,16.8297872 81.0245052,18.3018617 L81.0245052,40.2739362 C81.0245052,41.8005319 79.8218662,43 78.3459001,43 Z M78.3459001,10.1781915 C77.6352498,10.1781915 76.9245994,9.90558511 76.4326107,9.41489362 C75.9406221,8.92420213 75.6126296,8.21542553 75.6126296,7.50664894 C75.6126296,6.79787234 75.9406221,6.08909574 76.4326107,5.59840426 C76.9245994,5.10771277 77.6352498,4.78058511 78.3459001,4.78058511 C79.0565504,4.78058511 79.7672008,5.10771277 80.2591894,5.59840426 C80.7511781,6.08909574 81.0245052,6.79787234 81.0245052,7.50664894 C81.0245052,8.21542553 80.7511781,8.92420213 80.2591894,9.41489362 C79.7672008,9.90558511 79.0565504,10.1781915 78.3459001,10.1781915 Z M100.26673,15.6303191 C101.797361,15.6303191 103,16.8297872 103,18.3018617 C103,19.7739362 101.797361,21.0279255 100.26673,21.0279255 L96.3854854,21.0279255 L96.3854854,40.2739362 C96.3854854,41.7460106 95.1828464,43 93.6522149,43 C92.1762488,43 90.9736098,41.7460106 90.9736098,40.2739362 L90.9736098,21.0279255 L87.0377003,21.0279255 C85.5617342,21.0279255 84.3590952,19.7739362 84.3590952,18.3018617 C84.3590952,16.8297872 85.5617342,15.6303191 87.0377003,15.6303191 L90.9736098,15.6303191 L90.9736098,4.72606383 C90.9736098,3.25398936 92.1762488,2.05452128 93.6522149,2.05452128 C95.1828464,2.05452128 96.3854854,3.25398936 96.3854854,4.72606383 L96.3854854,15.6303191 L100.26673,15.6303191 Z" id="bit" fill="#4A6385"></path>
                    <g id="G">
                        <mask id="mask-2" fill="white">
                            <use xlink:href="#path-1"></use>
                        </mask>
                        <use id="Mask" fill="#217CE6" xlink:href="#path-1"></use>
                        <g id="Page-1" mask="url(#mask-2)" fill="#FFFFFF">
                            <g transform="translate(40.247186, 8.835443) rotate(136.000000) translate(-40.247186, -8.835443) translate(30.747186, -0.664557)">
                                <path d="M15.7245598,18.3258105 C15.0713673,18.3258105 14.4571923,18.0672484 13.9955118,17.5982987 C13.5332094,17.1295069 13.2792074,16.5059253 13.2792074,15.841751 C13.2792074,15.1788402 13.5332094,14.5551007 13.9942682,14.0869407 C14.4564151,13.6173592 15.0705901,13.3587971 15.7237826,13.3587971 C16.3766642,13.3587971 16.9905283,13.6167274 17.4515871,14.0856771 C18.4047942,15.0545346 18.4047942,16.6308628 17.4515871,17.5994043 C16.9905283,18.0680382 16.3769751,18.3258105 15.7245598,18.3258105" id="Fill-1"></path>
                                <path d="M2.44544572,5.08211056 C1.79240868,5.08211056 1.1780782,4.82354851 0.716086746,4.35412492 C0.254406193,3.88549108 9.32687986e-05,3.26175159 9.32687986e-05,2.59805108 C9.32687986e-05,1.93466646 0.253628953,1.31124287 0.71499861,0.843240821 C1.1774564,0.373343385 1.79194234,0.114781333 2.44513482,0.114781333 C3.09755007,0.114781333 3.71156966,0.372869538 4.17231753,0.841503385 C4.63461987,1.31092697 4.88908824,1.93498236 4.88908824,2.59836697 C4.88908824,3.26222544 4.63461987,3.88580697 4.17262842,4.35523056 C3.71156966,4.82402236 3.09786097,5.08211056 2.44544572,5.08211056" id="Fill-3"></path>
                                <path d="M2.50905504,18.3258105 C1.85586255,18.3258105 1.24168752,18.0672484 0.779385171,17.5982987 C0.317704618,17.129191 0.0637025895,16.5059253 0.0640134855,15.8420669 C0.0640134855,15.1788402 0.318948202,14.5551007 0.780784203,14.085993 C0.877472857,13.9871171 0.986441904,13.8966125 1.12510152,13.8016853 C1.16676158,13.771991 1.20531268,13.7486146 1.24510737,13.7239746 C1.33557811,13.6712197 1.42573795,13.6232033 1.50983531,13.584032 C1.55553702,13.5631828 1.60263777,13.5415438 1.65207023,13.522432 C1.7400538,13.4892628 1.83814148,13.4595684 1.95006404,13.4327171 C1.972604,13.4265571 1.99219045,13.4211869 2.01239869,13.4153428 C2.02483453,13.4120258 2.03695947,13.4077612 2.04970621,13.4046023 L2.59392965,13.3668525 C2.66279311,13.3700115 2.73678636,13.3788566 2.81559849,13.3892812 L2.84653264,13.3935458 C2.86503096,13.3957571 2.89005808,13.3978105 2.91508521,13.399232 L2.93715883,13.4008115 L2.96203051,13.4058658 L2.98363778,13.4058658 C3.02343247,13.4072874 3.0630717,13.4080771 3.10240005,13.4080771 C4.04052871,13.4080771 4.96653244,13.0021489 5.64304212,12.2948546 C6.31675374,11.5908771 6.68780812,10.6435007 6.66122651,9.69549251 L6.66044927,9.66753559 L6.65531948,9.63815713 C6.65034515,9.61162174 6.64879067,9.58461251 6.64692529,9.55807713 C6.64459357,9.52617149 6.6421064,9.49458174 6.63806476,9.4626761 L6.63200228,9.40692021 C6.62671705,9.35906174 6.62158727,9.31262482 6.61847831,9.26492431 L6.66013837,8.71020841 C6.66278099,8.69615097 6.66775532,8.68351508 6.67148608,8.67008944 L6.6812793,8.63581456 C6.70646187,8.53077867 6.73335438,8.42526892 6.77237183,8.323392 C6.79242462,8.26526687 6.81170017,8.22262072 6.83237475,8.17871097 C6.87605564,8.08173046 6.92113556,7.99359508 6.97414333,7.90324841 C6.99714963,7.86407713 7.01953414,7.82427405 7.04611575,7.78589251 C7.14482523,7.639632 7.23451872,7.52764636 7.32778752,7.43303508 C7.78946807,6.96392738 8.40317677,6.70583918 9.0571465,6.70583918 C9.71002809,6.70583918 10.324514,6.96361149 10.7865055,7.43224533 C11.7386245,8.40078687 11.7378472,9.97679918 10.7843292,10.9454987 C10.6881069,11.0437428 10.5786715,11.1337735 10.4398564,11.2302802 C10.3991291,11.2583951 10.360578,11.2817715 10.3220269,11.3049899 C10.2340433,11.3583766 10.1454379,11.4057612 10.0572989,11.4469858 C10.0095764,11.4687828 9.96185384,11.4912115 9.91553034,11.5084279 C9.82210609,11.5438084 9.72293027,11.5739766 9.61878011,11.5978269 L9.56017622,11.6144115 C9.54680769,11.6182023 9.53390551,11.6224669 9.52069243,11.6259417 L8.97118375,11.6655869 C8.90682828,11.6627438 8.8395193,11.6538987 8.76801322,11.6447376 L8.7190471,11.6385776 C8.70272506,11.6358925 8.67707614,11.6339971 8.65127177,11.6324176 L8.63199622,11.6305223 L8.60386013,11.6249941 L8.58178652,11.6249941 C8.54183638,11.6235725 8.50250804,11.6230987 8.46271335,11.6230987 C7.52474013,11.6230987 6.59920276,12.028711 5.92284852,12.7358474 C5.248826,13.4402987 4.87761618,14.3884648 4.90419779,15.336631 L4.90497503,15.3645879 L4.91010481,15.3927028 C4.9152346,15.419712 4.91632273,15.4462474 4.91865445,15.4730987 C4.92098617,15.5051623 4.92362879,15.5365941 4.92751499,15.5681838 C4.92844768,15.5871376 4.93217843,15.6212546 4.93637553,15.6547397 C4.94057262,15.6928053 4.94554696,15.7297653 4.94554696,15.767831 L4.94554696,15.7814146 L4.90606317,16.3130699 C4.903576,16.3242843 4.88601037,16.3854105 4.88119149,16.4046802 C4.85460988,16.519351 4.82476386,16.620912 4.79149799,16.7120484 C4.77315513,16.7629079 4.75465682,16.8068176 4.73320499,16.8524648 C4.69061224,16.9467602 4.64444419,17.0372648 4.59205821,17.129191 C4.56905191,17.1669407 4.54184851,17.2110084 4.51417876,17.2534966 C4.42324168,17.3874371 4.33308185,17.5000546 4.23654864,17.5986146 C3.77611167,18.0672484 3.16240298,18.3258105 2.50936594,18.3258105 L2.50905504,18.3258105 Z" id="Fill-7"></path>
                                <path d="M9.11027862,18.3258105 C8.45661979,18.3258105 7.84244475,18.0672484 7.38029786,17.5978248 C6.91877275,17.1288751 6.66477072,16.5056094 6.66445983,15.841751 C6.66399348,15.1788402 6.91799551,14.5554166 7.37920972,14.0875725 C7.47356665,13.9913817 7.58035943,13.9029305 7.72663599,13.8002638 C7.76285538,13.7751499 7.80187283,13.7509838 7.84275565,13.7271335 C7.93260459,13.6724833 8.01887823,13.6263623 8.10857172,13.5843479 C8.15629426,13.562393 8.20292866,13.5405961 8.2503403,13.522432 C8.34112193,13.488473 8.43998686,13.4589366 8.54475881,13.4354023 C8.54475881,13.4354023 8.630877,13.4099725 8.64175836,13.4072874 L9.19453144,13.3662207 C9.2598196,13.3692217 9.33023754,13.3788566 9.40376444,13.3884915 L9.44449182,13.3938617 C9.47185066,13.3965469 9.49454607,13.3989161 9.51739693,13.399232 C9.52641291,13.3998638 9.5354289,13.3998638 9.54413398,13.4008115 L9.56154416,13.4030228 L9.58470591,13.405392 C9.62527784,13.4064976 9.66616066,13.4077612 9.70657714,13.4077612 C10.642685,13.4072874 11.5671342,13.0021489 12.2422449,12.2956443 C12.9159565,11.5919828 13.2870109,10.6435007 13.2604293,9.69549251 L13.2571649,9.5797161 L13.2469053,9.56692226 C13.2464389,9.56297354 13.2464389,9.55855097 13.2459726,9.55428636 C13.244729,9.52727713 13.2431745,9.50010995 13.2403765,9.47262687 L13.2313605,9.39302072 C13.2263862,9.34926892 13.2206346,9.30614892 13.2192355,9.26223918 L13.2571649,8.72458174 C13.2601184,8.71162995 13.279083,8.64497559 13.283591,8.62507405 C13.3146806,8.49650379 13.3420395,8.40252431 13.3729736,8.31912738 C13.3903838,8.26921559 13.4116802,8.22341046 13.4332874,8.1752361 C13.4723049,8.08868021 13.5178511,8.00054482 13.5741233,7.90356431 L13.5846938,7.88587405 C13.603503,7.85317867 13.621535,7.82095713 13.6440749,7.78936738 C13.7441834,7.64121149 13.8330997,7.52954174 13.9268348,7.43414072 C14.3889817,6.96471713 15.0034677,6.70615508 15.6568156,6.70615508 C16.3095417,6.70615508 16.923095,6.96424328 17.3846201,7.43303508 C18.3372054,8.40110277 18.3372054,9.97790482 17.3846201,10.9470782 C17.292284,11.0405838 17.1820714,11.1310884 17.0385928,11.2318597 C17.0107677,11.2509715 16.9843415,11.2672402 16.9579153,11.283351 L16.9151671,11.3103602 C16.8334015,11.3596402 16.7441743,11.4070248 16.6577453,11.4473017 C16.6086237,11.4695725 16.5626111,11.4912115 16.5141113,11.5096915 C16.4284595,11.5423869 16.334258,11.5701858 16.2153403,11.5989325 C16.1915567,11.6046187 16.1722812,11.6107787 16.1533165,11.6166228 C16.139948,11.6200976 16.1275121,11.6242043 16.1146099,11.6273633 L15.5711637,11.6655869 C15.4917298,11.662112 15.4057671,11.6501079 15.322447,11.6390515 C15.294,11.6354187 15.2720818,11.634313 15.2504745,11.6330494 C15.2420803,11.6327335 15.2338416,11.6327335 15.2256029,11.6316279 L15.1792793,11.6265735 C15.1387074,11.6249941 15.0986018,11.6242043 15.0586517,11.6242043 C14.1216112,11.6242043 13.1973174,12.0298166 12.521274,12.7363212 C11.8480288,13.4407725 11.4774407,14.3884648 11.5046441,15.3372628 L11.5052659,15.3650617 L11.5105512,15.3923869 C11.5159918,15.4203438 11.51708,15.4492484 11.5189453,15.4773633 C11.5208107,15.5065838 11.522987,15.5351725 11.526096,15.5631294 C11.5281168,15.5866638 11.5313812,15.6166741 11.5344901,15.6458946 C11.5394645,15.6879089 11.5442834,15.7300812 11.545527,15.7720956 L11.5052659,16.3173346 C11.5023124,16.3291807 11.4814824,16.4027848 11.4814824,16.4027848 C11.4553671,16.5182453 11.4261429,16.6193325 11.3917889,16.7144176 C11.3754668,16.7591171 11.3560358,16.8022371 11.3362939,16.8472525 L11.3296097,16.8628894 C11.2891932,16.9518146 11.2436469,17.0394761 11.1928154,17.1252423 C11.1679438,17.1677305 11.1432275,17.209271 11.1172677,17.2484423 C11.0213563,17.3896484 10.9311965,17.5021079 10.8346633,17.6009838 C10.3754699,18.0680382 9.76269387,18.3258105 9.11027862,18.3258105" id="Fill-9"></path>
                                <path d="M2.50997218,11.6197028 C1.85662425,11.6197028 1.24276011,11.3616146 0.781079554,10.8928228 C0.319243553,10.4230833 0.0649306286,9.79934379 0.0644642846,9.13564328 C0.0641533886,8.47273251 0.317689073,7.84962482 0.779369626,7.38114892 C0.874037457,7.28480021 0.984250087,7.19397969 1.12601866,7.0947879 C1.16285984,7.06935815 1.20467535,7.04361251 1.24617996,7.01818277 C1.33074367,6.96748123 1.41701731,6.92088636 1.50919798,6.87792431 C1.55629872,6.85581149 1.60339946,6.83433046 1.65329827,6.81553456 C1.74299176,6.78204944 1.84232303,6.75235508 1.9455405,6.72897867 L2.0077197,6.71113046 C2.01922286,6.70781354 2.03010422,6.70386482 2.04145192,6.70117969 L2.59484679,6.66074482 C2.66666377,6.66390379 2.74438776,6.67417046 2.82568707,6.68538482 L2.84278635,6.68775405 C2.87107788,6.69075508 2.8931515,6.69201867 2.91538056,6.69312431 C2.92330841,6.69344021 2.93123626,6.69344021 2.93931955,6.69454585 L2.9631031,6.69881046 L2.98548761,6.69975815 C3.02637043,6.70086379 3.06694236,6.70149559 3.10735884,6.70149559 C4.04315579,6.70149559 4.96760503,6.29635713 5.64302658,5.58953662 C6.31627186,4.88508533 6.68717078,3.93691918 6.66012283,2.98859508 L6.65934559,2.96126995 L6.65406035,2.93441867 C6.64846423,2.90425046 6.64768699,2.87392431 6.64566616,2.84312431 C6.64442258,2.81816841 6.64271265,2.79305456 6.64007004,2.76699303 L6.63183129,2.6903879 C6.62607972,2.64505662 6.62032814,2.59877764 6.61939545,2.55265662 L6.65608118,2.030952 L6.65934559,2.0189479 L6.65934559,2.00852328 C6.66245455,1.99667713 6.68250734,1.92733764 6.68250734,1.92733764 C6.71359694,1.79387097 6.74126668,1.69736431 6.77235628,1.61222995 C6.78961101,1.56531918 6.81137373,1.51840841 6.8332919,1.46991815 C6.87293114,1.38067713 6.91956554,1.29033046 6.97335054,1.19824636 L6.98174473,1.18403097 C7.00288566,1.14817662 7.02371569,1.11248021 7.04749924,1.07662585 C7.14449879,0.933840205 7.23357049,0.82232841 7.32652839,0.728033026 C7.78867529,0.258609436 8.40285033,4.73846154e-05 9.05650916,4.73846154e-05 C9.7095462,4.73846154e-05 10.3235658,0.258293538 10.7854018,0.727243282 C11.7381426,1.69562687 11.7373653,3.27211303 10.7843137,4.24018072 C10.6899567,4.33637149 10.5775678,4.42908738 10.4401518,4.52385662 C10.4025334,4.55086585 10.3703556,4.56997764 10.3370898,4.59003713 L10.3189023,4.60077764 C10.2292089,4.65495405 10.1409144,4.70233867 10.0577497,4.74119405 C10.0083172,4.76425456 9.96214919,4.78541969 9.91535935,4.80310995 C9.82364503,4.83770072 9.72633458,4.86707918 9.61643285,4.89282482 C9.5932711,4.89851097 9.57259651,4.90467097 9.55192193,4.91051508 C9.53933064,4.913832 9.52642846,4.91809662 9.51352627,4.92125559 L8.97163455,4.95979508 C8.90308199,4.95616226 8.82955508,4.94700123 8.75260832,4.93705046 L8.71934245,4.93278585 C8.69447077,4.92978482 8.67130902,4.92852123 8.64892451,4.92709969 C8.64006397,4.92662585 8.63089254,4.92662585 8.62172111,4.92504636 L8.60353369,4.92283508 L8.57975015,4.92093969 C8.53917822,4.91936021 8.49891719,4.91857046 8.45865616,4.91857046 C7.52254832,4.91857046 6.59809908,5.32370892 5.92252208,6.02973969 C5.24881046,6.73419097 4.87760064,7.68283097 4.90418224,8.63162892 L4.90495948,8.65926995 L4.90977837,8.68659508 C4.9156854,8.7142361 4.91661808,8.74314072 4.91863891,8.77125559 C4.92050428,8.8004761 4.92268056,8.82906482 4.92578952,8.85828533 C4.92812124,8.88134585 4.93154109,8.91088226 4.9351164,8.94026072 C4.93946894,8.98164328 4.94475417,9.022552 4.94553141,9.06361867 L4.90651396,9.60506687 C4.90356045,9.61896636 4.89889701,9.63302379 4.89485537,9.64787097 L4.88117594,9.69620328 C4.85397254,9.81734995 4.82521466,9.91827918 4.79257058,10.0078361 C4.77516041,10.0547469 4.7527759,10.1032371 4.73039138,10.152991 C4.6902858,10.242232 4.64473954,10.3303674 4.59188722,10.4203982 C4.56654919,10.4635182 4.5429211,10.503953 4.51758307,10.5420187 C4.41731912,10.6897007 4.33089003,10.7982115 4.23653309,10.8931387 C3.77500799,11.3619305 3.16192109,11.6197028 2.50997218,11.6197028" id="Fill-11"></path>
                            </g>
                        </g>
                        <path d="M32.341437,8.44104286 L32.341437,28.9287568 C32.341437,35.0222923 27.4776799,39.9642936 21.4333993,39.9642936 C19.7334453,39.9642936 18.1279333,39.5324682 16.6168631,38.8607399 C16.1446537,38.5248757 15.861328,37.8531474 16.1446537,37.3253609 C16.4279793,36.7016132 17.0890725,36.4617102 17.6557238,36.7975743 C18.8362474,37.3733415 20.016771,37.661225 21.4333993,37.661225 C26.2499354,37.661225 30.0748318,33.7747969 30.0748318,28.9287568 L30.0748318,26.0499211 C28.1387731,28.8807762 24.97497,30.6560582 21.4333993,30.6560582 C15.3891186,30.6560582 10.5725824,25.4261734 10.5725824,18.9487931 C10.5725824,12.6153546 15.3891186,7.28950859 21.4333993,7.28950859 C24.97497,7.28950859 28.1387731,9.11277119 30.0748318,11.8956457 L30.0748318,8.44104286 C30.0748318,7.81729513 30.5942622,7.28950859 31.2553554,7.28950859 C31.8220067,7.28950859 32.341437,7.81729513 32.341437,8.44104286 Z M21.4333993,28.4009703 C26.2027145,28.4009703 30.0748318,24.2266585 30.0748318,18.9487931 C30.0748318,13.7189083 26.2027145,9.59257714 21.4333993,9.59257714 C16.711305,9.59257714 12.8391877,13.7189083 12.8391877,18.9487931 C12.8391877,24.2266585 16.711305,28.4009703 21.4333993,28.4009703 Z" id="g" fill="#FFFFFF" mask="url(#mask-2)"></path>
                    </g>
                </g>
            </g>
        </g>
    </g>
</svg>